<svg xmlns="http://www.w3.org/2000/svg" xml:space="preserve" fill-rule="evenodd" stroke-linecap="round" stroke-linejoin="round" style="background-color:#000" viewBox="0 0 1024 768"><defs><clipPath id="clipId0"><path d="M0 768h1024V0H0z"/></clipPath><style><![CDATA[g[clip-path]>*{vector-effect:non-scaling-stroke}]]></style></defs><g fill="none" stroke="red" clip-path="url(#clipId0)"><path d="M920.893 389.057h24.198M816.928 452.591h128.163M939.316 383.281v75.086M945.091 394.833l-11.551-11.552M933.54 446.815l11.551 11.552"/></g><g fill="none" stroke="#0ff" clip-path="url(#clipId0)"><path d="m925.344 427.7-.55-1.1-1.651-1.65h11.552M925.344 416.699l-.55-1.101-1.651-1.65h11.552"/></g><g fill="none" stroke="red" clip-path="url(#clipId0)"><path d="M915.117 394.833v96.128M811.153 458.367v32.594M920.893 485.185H805.377M909.341 490.961l11.552-11.552M816.928 479.409l-11.551 11.552"/></g><g fill="none" stroke="#0ff" clip-path="url(#clipId0)"><path d="m854.609 471.213 1.1-.55 1.65-1.651v11.552M866.71 480.564h2.201l1.65-.55.55-.55.55-1.1v-1.65l-.55-1.101-1.1-1.1-1.65-.55-2.201-.55-1.1-.55-.55-1.1v-1.1l.55-1.101 1.65-.55h2.201l1.65.55.55 1.101v1.1l-.55 1.1-1.1.55-2.2.55-1.651.55-1.1 1.1-.55 1.101v1.65l.55 1.1.55.55z"/></g><g fill="none" stroke="red" clip-path="url(#clipId0)"><path d="M811.153 458.367v32.594M77.624 458.367v32.594M816.928 485.185H71.848M805.377 490.961l11.551-11.552M83.4 479.409l-11.552 11.552"/></g><g fill="none" stroke="#0ff" clip-path="url(#clipId0)"><path d="m430.361 471.212 1.1-.55 1.651-1.651v11.552M440.263 471.762v-.55l.55-1.101.55-.55 1.1-.55h2.2l1.101.55.55.55.55 1.101v1.1l-.55 1.1-1.101 1.65-5.5 5.501h7.701M452.915 480.563l5.5-11.552h-7.701"/></g><g fill="none" stroke="red" clip-path="url(#clipId0)"><path d="M71.848 389.057H47.56M71.848 452.591H47.56M53.336 383.281v75.086M59.112 394.833 47.56 383.281M47.56 446.815l11.552 11.552"/></g><g fill="none" stroke="#0ff" clip-path="url(#clipId0)"><path d="m39.364 427.7-.55-1.1-1.65-1.65h11.552M39.364 416.699l-.55-1.101-1.65-1.65h11.552"/></g><g fill="none" stroke="red" clip-path="url(#clipId0)"><path d="M71.848 452.591H20.437M270.046 325.523H20.437M26.213 458.367v-138.62M20.437 446.815l11.552 11.552M31.989 331.299l-11.552-11.552"/></g><g fill="none" stroke="#0ff" clip-path="url(#clipId0)"><path d="M12.79 397.858h-.55l-1.101-.55-.55-.55-.55-1.1v-2.2l.55-1.1.55-.55 1.101-.551h1.1l1.1.551 1.65 1.1 5.501 5.5v-7.701M12.79 386.857h-.55l-1.101-.55-.55-.55-.55-1.1v-2.201l.55-1.1.55-.55 1.101-.55h1.1l1.1.55 1.65 1.1 5.501 5.501v-7.701"/></g><g fill="none" stroke="red" clip-path="url(#clipId0)"><path d="M77.624 383.281v-95.277M239.347 383.281v-95.277M71.848 293.78h173.275M83.4 288.004l-11.552 11.551M233.571 299.555l11.552-11.551"/></g><g fill="none" stroke="#0ff" clip-path="url(#clipId0)"><path d="M149.684 280.357v-.55l.55-1.101.55-.55 1.101-.55h2.2l1.1.55.55.55.55 1.101v1.1l-.55 1.1-1.1 1.65-5.501 5.501h7.701M162.886 289.158h2.2l1.651-.55.55-.55.55-1.1v-1.651l-.55-1.1-1.1-1.1-1.651-.55-2.2-.55-1.1-.55-.55-1.1v-1.101l.55-1.1 1.65-.55h2.2l1.651.55.55 1.1v1.101l-.55 1.1-1.101.55-2.2.55-1.65.55-1.1 1.1-.55 1.1v1.651l.55 1.1.55.55z"/></g><g fill="none" stroke="red" clip-path="url(#clipId0)"><path d="m269.248 337.776 21.204 21.203M277.417 329.607l21.203 21.204M286.368 354.895l-8.169 8.168M294.536 346.726l8.168-8.168M286.368 354.895l8.168-8.169M286.368 363.063v-16.337M294.536 338.558v16.337"/></g><g fill="none" stroke="#0ff" clip-path="url(#clipId0)"><path d="m278.626 343.653-.389-.389-.389-1.167v-.778l.389-1.167 1.556-1.556 1.167-.389h.778l1.167.389.778.778.389 1.167.389 1.945v7.779l5.445-5.445"/></g><g fill="none" stroke="red" clip-path="url(#clipId0)"><path d="m877.047 329.607-21.169 21.169M885.216 337.776l-21.169 21.169M859.962 346.692l-8.168-8.168M868.131 354.861l8.168 8.168M859.962 346.692l8.169 8.169M851.794 346.692h16.337M876.299 354.861h-16.337"/></g><g fill="none" stroke="#0ff" clip-path="url(#clipId0)"><path d="m871.204 338.951.389-.389 1.167-.389h.778l1.167.389 1.556 1.556.389 1.167v.778l-.389 1.167-.778.778-1.167.389-1.945.389h-7.779l5.445 5.445"/></g><g fill="none" stroke="red" clip-path="url(#clipId0)"><path d="m267.605 328.457 14.523-31.144M239.347 383.281v-95.453M268.941 298.308a95.5 95.5 0 0 0-18.064-4.005"/></g><g fill="red" stroke="red" clip-path="url(#clipId0)"><path d="m269.648 296.517-1.413 3.582 11.452 2.448h0zM250.761 296.225l.233-3.844-11.647 1.223h0z"/></g><g fill="none" stroke="#0ff" clip-path="url(#clipId0)"><path d="m252.171 280.381.119-.537.775-.955.656-.418 1.194-.299 2.148.476.955.775.418.656.299 1.193-.238 1.075-.776.955-1.431 1.373-6.561 4.179 7.519 1.667M260.946 289.087l.299 1.193.418.657 1.492.894 1.611.357 1.73-.18 1.313-.836.894-1.492.238-1.074-.18-1.73-.836-1.312-1.492-.895-1.611-.357-1.73.18-.656.418 1.608-4.714 5.371 1.19M273.293 281.683l.955.775.418.656-.238 1.074-.656.418-1.193.299-.955-.775-.418-.656.238-1.074.656-.418z"/></g><g fill="none" stroke="red" clip-path="url(#clipId0)"><path d="M915.117 383.281v-95.453M886.859 328.457l-14.523-31.144M903.587 294.303a95.5 95.5 0 0 0-18.064 4.005"/></g><g fill="red" stroke="red" clip-path="url(#clipId0)"><path d="m903.47 292.381.233 3.844 11.414-2.621h0zM886.229 300.099l-1.413-3.582-10.039 6.03h0z"/></g><g fill="none" stroke="#0ff" clip-path="url(#clipId0)"><path d="m880.811 285.143-.119-.537.299-1.193.418-.656.955-.775 2.148-.477 1.194.299.656.418.775.955.238 1.074-.299 1.194-.717 1.849-4.18 6.561 7.519-1.667M892.444 289.325l.775.955.656.418 1.73.18 1.611-.357 1.492-.894.836-1.312.18-1.73-.238-1.075-.894-1.492-1.312-.836-1.73-.179-1.612.357-1.492.894-.418.656-.534-4.952 5.37-1.191M900.505 277.397l1.193.299.656.418.238 1.074-.418.656-.955.775-1.193-.299-.656-.418-.238-1.074.418-.656z"/></g><g fill="none" stroke="red" clip-path="url(#clipId0)"><path d="m899.043 357.129 21.405-21.503h80.862M920.448 331.449v-11.552h4.95l1.651.551.55.55.55 1.1v1.1l-.55 1.1-.55.55-1.651.55h-4.95M924.298 325.398l3.851 6.051M931.999 319.897v11.552M936.4 319.897v11.552h6.601M945.751 319.897v11.552h6.601M953.452 331.449l4.401-11.552 4.4 11.552M955.102 327.599h5.501M965.004 331.449v-11.552h3.85l1.651.551 1.1 1.1.55 1.1.55 1.65v2.75l-.55 1.651-.55 1.1-1.1 1.1-1.651.55zM986.457 319.897l4.401 5.501 4.4-5.501M990.858 325.398v6.051M996.358 319.897h7.702M1000.21 319.897v11.552M1005.16 331.449l4.4-11.552 4.4 11.552M1006.81 327.599h5.5M416.655 325.523l20.533-20.626h103.964M437.188 297.243v-11.552h7.151M437.188 291.192h4.4M447.089 285.691v11.552M451.49 297.243v-11.552l7.701 11.552v-11.552M463.041 295.593l1.1 1.1 1.651.55h2.2l1.65-.55 1.1-1.1v-1.651l-.55-1.1-.55-.55-1.1-.55-3.3-1.1-1.101-.55-.55-.55-.55-1.1v-1.1l1.1-1.101 1.651-.55h2.2l1.65.55 1.1 1.101"/></g><g fill="red" stroke="red" clip-path="url(#clipId0)"><text font-family="Arial,'sans-serif'" font-size="1.396" transform="translate(472.393 297.243)scale(11.5516)">Å</text></g><g fill="none" stroke="red" clip-path="url(#clipId0)"><path d="m493.087 288.442-.55-1.1-1.1-1.101-1.101-.55h-2.2l-1.1.55-1.1 1.101-.55 1.1-.55 1.65v2.75l.55 1.651.55 1.1 1.1 1.1 1.1.55h2.2l1.101-.55 1.1-1.1.55-1.1v-1.651h-2.751M495.287 297.243l4.401-11.552 4.4 11.552M496.937 293.392h5.501M506.839 297.243v-11.552h3.85l1.651.55 1.1 1.101.55 1.1.55 1.65v2.75l-.55 1.651-.55 1.1-1.1 1.1-1.651.55zM528.292 285.691l4.4 5.501 4.401-5.501M532.692 291.192v6.051M538.193 285.691h7.701M542.044 285.691v11.552M546.994 297.243l4.401-11.552 4.401 11.552M548.645 293.392h5.501M253.471 362.185l21.405 63.477h86.637"/><path d="M280.651 420.255v-11.552h4.951l1.65.55.55.55.551 1.1v1.101l-.551 1.1-.55.55-1.65.55h-4.951M284.502 414.204l3.851 6.051M292.203 408.703v11.552M296.604 408.703v11.552h6.601M305.955 408.703v11.552h6.601M313.656 420.255l4.401-11.552 4.4 11.552M315.306 416.404h5.501M325.208 420.255v-11.552h3.85l1.65.55 1.101 1.1.55 1.1.55 1.651v2.75l-.55 1.65-.55 1.101-1.101 1.1-1.65.55zM346.661 408.703l4.4 5.501 4.401-5.501M351.061 414.204v6.051M356.562 408.703h7.701M360.413 408.703v11.552M365.363 420.255l4.401-11.552 4.401 11.552M367.014 416.404h5.5M161.373 391.945l113.503 33.717"/></g><g fill="none" stroke="#0f0" clip-path="url(#clipId0)"><path d="M885.216 333.691v-4.084h-4.084v-4.084H273.333v4.084h-4.085v4.084h-4.084l1.397 3.838-3.838 1.397 1.397 3.838-3.838 1.397 1.397 3.838-3.838 1.396 1.397 3.838-3.838 1.397 1.397 3.838-3.837 1.397 1.396 3.838-3.837 1.396 1.396 3.838-3.837 1.397 1.396 3.838-3.837 1.397 1.396 3.838-3.837 1.396 1.397 3.838-5.246 4.416-2.888 2.888-2.888-2.888-2.888 2.888-2.888-2.888-2.888 2.888-2.888-2.888-2.887 2.888-2.888-2.888-2.888 2.888-2.888-2.888-2.888 2.888-2.888-2.888-2.888 2.888-2.888-2.888-2.888 2.888-2.888-2.888-2.888 2.888-2.887-2.888-2.888 2.888-2.888-2.888-2.888 2.888-2.888-2.888-2.888 2.888-2.888-2.888-2.888 2.888-2.888-2.888-2.888 2.888-2.888-2.888-2.887 2.888-2.888-2.888-2.888 2.888-2.888-2.888-2.888 2.888-2.888-2.888-2.888 2.888-2.888-2.888-2.888 2.888-2.888-2.888-2.888 2.888-2.887-2.888-2.888 2.888-2.888-2.888-2.888 2.888-2.888-2.888-2.888 2.888-2.888-2.888-2.888 2.888-2.888-2.888-2.888 2.888-2.887-2.888-2.888 2.888-2.888-2.888-2.888 2.888-2.888-2.888-2.888 2.888-2.888-2.888v63.534h733.529v-63.534h103.964l-5.245-4.416 1.396-3.838-3.837-1.396 1.397-3.838-3.838-1.397 1.397-3.838-3.838-1.397 1.397-3.838-3.838-1.396 1.397-3.838-3.838-1.397 1.397-3.838-3.838-1.397 1.397-3.838-3.838-1.396 1.397-3.838-3.838-1.397 1.397-3.838-3.838-1.397 1.397-3.838z"/></g></svg>